<svg width="53" height="42" viewBox="0 0 53 42" fill="sandybrown" xmlns="http://www.w3.org/2000/svg">
<path d="M52 5C52 3 50 1 48 1H5.00001C3.00001 1 1.00001 3 1.00001 5C1.00001 7 3.00001 9 5.00001 9C7.00001 9 9.00001 11 9.00001 13C9.00001 15 7.00001 17 5.00001 17C3.00001 17 1.00001 19 1.00001 21C1.00001 23 3.00001 25 5.00001 25C7.00001 25 9.00001 27 9.00001 29C9.00001 31 7.00001 33 5.00001 33C3.00001 33 1 35 1 37C1 39 3 41 5 41H48C50 41 52 39 52 37C52 35 50 33 48 33C46 33 44 31 44 29C44 27 46 25 48 25C50 25 52 23 52 21C52 19 50 17 48 17C46 17 44 15 44 13C44 11 46 9 48 9C50 9 52 7 52 5Z" stroke="sandybrown" stroke-width="2"/>
<path d="M39.1582 8.7207L39.8086 9.17773C39.5625 10.3145 39.2227 11.2109 38.7891 11.8672C38.3672 12.5234 37.7402 13.0449 36.9082 13.4316C36.0879 13.8066 35.1387 13.9941 34.0605 13.9941C33.4863 13.9941 32.7891 13.959 31.9688 13.8887V31.6602C33.75 31.1211 35.168 30.4297 36.2227 29.5859C37.2773 28.7305 38.2559 27.5059 39.1582 25.9121L39.8086 26.2285C39.293 27.7988 38.6953 29.0586 38.0156 30.0078C36.9258 31.543 35.5195 32.7617 33.7969 33.6641C32.0742 34.5547 30.082 35 27.8203 35C25.6172 35 23.5547 34.5781 21.6328 33.7344C20.5195 33.2422 19.5 32.5508 18.5742 31.6602C17.6484 30.7695 16.8867 29.6914 16.2891 28.4258C15.7031 27.1602 15.4102 25.7246 15.4102 24.1191C15.4102 22.502 15.7324 20.9551 16.377 19.4785C17.0215 18.002 17.9707 16.5898 19.2246 15.2422C20.0215 14.3984 21.1465 13.4668 22.5996 12.4473L20.3848 12.3242C19.5645 12.2773 18.6562 12.4531 17.6602 12.8516C16.6641 13.2383 15.8848 13.7598 15.3223 14.416C14.7715 15.0723 14.291 16.0508 13.8809 17.3516L13.2305 16.9648C13.6289 15.3008 14.1445 14.0059 14.7773 13.0801C15.6211 11.8496 16.7344 10.9004 18.1172 10.2324C19.5 9.55273 21.0762 9.21289 22.8457 9.21289C24.0762 9.21289 26.25 9.4707 29.3672 9.98633C32.4844 10.502 34.6289 10.7598 35.8008 10.7598C36.5859 10.7598 37.1836 10.6426 37.5938 10.4082C38.0156 10.1621 38.5371 9.59961 39.1582 8.7207ZM24.5684 12.623L23.6367 12.5352C22.0664 13.8828 20.9121 15.2305 20.1738 16.5781C19.1777 18.3945 18.6797 20.2637 18.6797 22.1855C18.6797 25.4668 20.0273 28.1445 22.7227 30.2188C23.5781 29.5039 24.0996 28.9238 24.2871 28.4785C24.4746 28.0332 24.5684 27.125 24.5684 25.7539V12.623ZM31.1602 13.7305C30.0469 13.5781 29.0625 13.4141 28.207 13.2383V23.75C28.207 24.9805 28.1543 25.7656 28.0488 26.1055C27.9551 26.4336 27.7266 26.8086 27.3633 27.2305C26.707 27.957 25.3945 29.1055 23.4258 30.6758C24.4102 31.1562 25.207 31.4785 25.8164 31.6426C26.8711 31.9238 27.8848 32.0645 28.8574 32.0645C29.373 32.0645 30.1406 32 31.1602 31.8711V13.7305Z" fill="#666"/>
</svg>
