<svg width="279" height="88" viewBox="0 0 279 88" fill="none" xmlns="http://www.w3.org/2000/svg">


<rect width="90" height="88" fill="#FF7733"/>
<path d="M63.7745 26.2989C63.8161 26.4864 63.837 26.6531 63.837 26.7989C63.837 27.4031 63.462 27.8093 62.712 28.0177C62.6703 28.0385 61.9516 28.1531 60.5557 28.3614C56.8682 28.8823 53.0766 29.3093 49.1807 29.6427C47.5349 33.1635 45.5141 38.8718 43.1182 46.7677C40.9099 53.976 39.2849 59.9968 38.2432 64.8302C37.8891 66.3927 37.3682 67.1739 36.6807 67.1739C36.2432 67.1739 35.3578 66.9448 34.0245 66.4864C33.5453 66.3406 33.2849 66.0593 33.2432 65.6427C33.2849 66.0593 33.3057 65.4239 33.3057 63.7364C33.3057 60.6739 33.7953 57.8823 34.7745 55.3614C35.1495 54.4239 35.5661 53.9552 36.0245 53.9552C36.1495 53.9552 36.3891 54.0073 36.7432 54.1114C37.1182 54.1948 37.4203 54.2468 37.6495 54.2677C38.212 52.1427 39.5453 47.9448 41.6495 41.6739C44.0245 34.5906 45.3161 30.7052 45.5245 30.0177C42.3161 30.2677 39.1078 30.7677 35.8995 31.5177C32.337 32.3927 30.0036 33.3198 28.8995 34.2989C27.6495 35.4239 27.0245 36.5385 27.0245 37.6427C27.0245 38.8302 27.712 40.6843 29.087 43.2052C29.2328 43.476 29.3057 43.726 29.3057 43.9552C29.3057 44.476 29.0661 44.7364 28.587 44.7364C28.2536 44.7364 27.9516 44.5385 27.6807 44.1427C26.0349 41.7885 24.962 39.9552 24.462 38.6427C24.1078 37.726 23.8578 36.4031 23.712 34.6739C23.4828 32.1323 25.5766 30.2573 29.9932 29.0489C35.7432 27.4864 41.5453 26.4448 47.3995 25.9239C48.0661 24.5698 48.5557 23.8927 48.8682 23.8927C49.3474 23.8927 50.1599 24.4135 51.3057 25.4552C51.8474 25.4552 53.5245 25.2468 56.337 24.8302C56.837 24.7468 57.3474 24.3823 57.8682 23.7364C58.3266 23.1323 59.4203 22.7885 61.1495 22.7052C62.087 22.6635 62.7328 23.0177 63.087 23.7677C63.1495 23.8718 63.3786 24.7156 63.7745 26.2989Z" fill="white"/>
<rect x="90" width="189" height="88" fill="#FF7733"/>
<rect x="90" y="4" width="185" height="80" fill="white"/>
<path d="M125.839 35.0488C125.556 37.1484 124.662 38.1982 123.159 38.1982C122.631 38.1982 121.621 37.9639 120.126 37.4951C118.632 37.0264 117.343 36.792 116.259 36.792C114.863 36.792 113.652 37.3096 112.626 38.3447C111.611 39.3799 111.103 40.2832 111.103 41.0547C111.103 41.8066 111.572 42.4756 112.509 43.0615C112.89 43.3057 113.08 43.5254 113.08 43.7207C113.08 43.9844 112.807 44.3408 112.26 44.79C111.723 45.2393 111.318 45.4639 111.044 45.4639C110.585 45.4639 110.156 45.2002 109.755 44.6729C109.355 44.1455 109.155 43.5693 109.155 42.9443C109.155 41.7334 109.648 40.415 110.634 38.9893C111.621 37.5537 112.91 36.3867 114.501 35.4883C116.093 34.5801 117.763 34.126 119.511 34.126C120.693 34.126 121.811 34.3066 122.866 34.668C123.92 35.0195 124.579 35.1953 124.843 35.1953C125.078 35.1953 125.278 35.127 125.444 34.9902L125.532 34.9609L125.839 35.0488ZM120.346 39.5459C120.727 39.5459 120.917 39.668 120.917 39.9121L120.566 41.8604L120.493 45.4785C120.444 46.6602 120.263 47.749 119.951 48.7451C119.667 49.6729 119.272 50.5176 118.764 51.2793C118.305 51.9824 117.753 52.6025 117.109 53.1396C116.513 53.6377 115.859 54.0576 115.146 54.3994C114.482 54.7119 113.784 54.9463 113.051 55.1025C112.377 55.2588 111.699 55.3369 111.015 55.3369C109.423 55.3369 108.173 54.9951 107.265 54.3115C106.367 53.6182 105.917 52.9492 105.917 52.3047C105.917 51.9336 106.249 51.4551 106.913 50.8691C107.587 50.2832 108.095 49.9902 108.437 49.9902C108.857 49.9902 109.067 50.3809 109.067 51.1621C109.067 52.4316 109.272 53.2568 109.682 53.6377C110.102 54.0088 110.659 54.1943 111.352 54.1943C112.475 54.1943 113.456 53.8379 114.296 53.125C115.146 52.4121 115.717 51.5625 116.01 50.5762C116.303 49.5801 116.454 48.1152 116.464 46.1816C116.474 44.248 116.616 42.9199 116.889 42.1973C117.172 41.4648 117.685 40.8398 118.427 40.3223C119.169 39.8047 119.809 39.5459 120.346 39.5459ZM130.546 36.8506C130.546 39.1943 129.682 40.3662 127.953 40.3662C127.113 40.3662 126.396 40.1123 125.8 39.6045C126.366 38.7451 126.806 37.7783 127.118 36.7041C127.89 37.1826 128.51 37.4219 128.979 37.4219C129.506 37.4219 130.029 37.2314 130.546 36.8506ZM130.839 51.7627C128.554 54.165 126.845 55.3662 125.712 55.3662C125.087 55.3662 124.56 55.0488 124.13 54.4141C123.7 53.7695 123.486 52.9639 123.486 51.9971C123.486 49.917 124.189 47.0361 125.595 43.3545L129.316 42.5781H129.491L128.027 47.1631C127.421 49.0576 127.118 50.4102 127.118 51.2207C127.118 51.543 127.187 51.8066 127.323 52.0117C127.47 52.207 127.651 52.3047 127.865 52.3047C128.246 52.3047 128.627 52.168 129.008 51.8945C129.399 51.6113 130.009 51.0059 130.839 50.0781V51.7627ZM140.746 51.7627C139.496 52.9932 138.349 53.8965 137.304 54.4727C136.269 55.0488 135.185 55.3369 134.052 55.3369C132.782 55.3369 131.732 54.9268 130.902 54.1064C130.082 53.2764 129.672 52.2266 129.672 50.957C129.672 48.877 130.429 46.958 131.942 45.2002C133.466 43.4326 135.111 42.5488 136.879 42.5488C137.748 42.5488 138.456 42.793 139.003 43.2812C139.55 43.7598 139.823 44.3848 139.823 45.1562C139.823 45.4297 139.77 45.6348 139.662 45.7715C139.564 45.9082 139.374 46.0449 139.091 46.1816L137.392 46.9873C137.187 47.085 137.035 47.1338 136.937 47.1338C136.801 47.1338 136.732 47.0361 136.732 46.8408C136.732 46.7627 136.762 46.5088 136.82 46.0791C136.879 45.6396 136.908 45.3711 136.908 45.2734C136.908 44.8438 136.815 44.4971 136.63 44.2334C136.454 43.9697 136.215 43.8379 135.912 43.8379C135.199 43.8379 134.545 44.3652 133.949 45.4199C133.363 46.4746 133.07 47.6758 133.07 49.0234C133.07 50.1855 133.349 51.1133 133.905 51.8066C134.462 52.5 135.204 52.8467 136.132 52.8467C136.923 52.8467 137.665 52.6221 138.358 52.1729C139.062 51.7139 139.857 51.0156 140.746 50.0781V51.7627ZM154.081 51.7334C151.864 54.1553 150.023 55.3662 148.558 55.3662C147.855 55.3662 147.264 55.1221 146.786 54.6338C146.307 54.1357 146.068 53.5254 146.068 52.8027C146.068 52.4609 146.127 51.9482 146.244 51.2646C146.361 50.5811 146.42 50.1953 146.42 50.1074C146.42 49.6582 146.166 49.4287 145.658 49.4189C145.15 49.3994 144.896 49.1992 144.896 48.8184C144.896 48.4863 144.965 48.2568 145.101 48.1299C145.248 47.9932 145.516 47.9248 145.907 47.9248C146.981 47.8955 147.782 47.6758 148.309 47.2656C148.837 46.8457 149.1 46.3525 149.1 45.7861C149.1 45.3857 148.954 45.0586 148.661 44.8047C148.378 44.541 148.012 44.4092 147.562 44.4092C147.318 44.4092 147.084 44.4385 146.859 44.4971C146.625 44.5557 146.4 44.6436 146.185 44.7607C145.961 44.8877 145.726 45.0488 145.482 45.2441C145.248 45.4492 144.999 45.6982 144.735 45.9912C144.481 46.2744 144.203 46.6113 143.9 47.002C143.744 47.207 143.549 48.1689 143.314 49.8877C143.197 50.7764 143.119 51.5967 143.08 52.3486C143.041 53.0518 143.036 53.8477 143.065 54.7363L139.74 55.293C139.613 54.5508 139.55 53.6426 139.55 52.5684C139.55 49.6387 139.945 46.8408 140.736 44.1748C141.527 41.5088 142.821 38.7695 144.618 35.957C146.014 35.3906 147.221 34.9512 148.236 34.6387C149.252 34.3164 149.818 34.1553 149.935 34.1553C150.17 34.1553 150.399 34.3896 150.624 34.8584C150.848 35.3271 150.961 35.8203 150.961 36.3379C150.961 37.207 150.673 38.1592 150.096 39.1943C149.52 40.2197 148.627 41.46 147.416 42.915C148.246 42.6709 148.934 42.5488 149.481 42.5488C150.389 42.5488 151.132 42.7832 151.708 43.252C152.284 43.7109 152.572 44.2969 152.572 45.0098C152.572 46.6309 151.112 47.8223 148.192 48.584C149.335 48.8477 149.906 49.5166 149.906 50.5908L149.818 51.9092C149.818 52.5049 150.096 52.8027 150.653 52.8027C151.044 52.8027 151.488 52.6123 151.986 52.2314C152.484 51.8506 153.182 51.123 154.081 50.0488V51.7334ZM144.471 44.6729L145.438 43.6035C148.3 40.3809 149.73 38.1104 149.73 36.792C149.73 36.1865 149.467 35.8838 148.939 35.8838C148.334 35.8838 147.636 36.5967 146.845 38.0225C146.063 39.4482 145.272 41.665 144.471 44.6729ZM163.988 51.7627C162.748 52.9834 161.634 53.8867 160.648 54.4727C159.662 55.0488 158.573 55.3369 157.381 55.3369C156.053 55.3369 154.979 54.9121 154.159 54.0625C153.348 53.2129 152.943 52.0947 152.943 50.708C152.943 48.6377 153.661 46.7676 155.096 45.0977C156.532 43.418 158.124 42.5781 159.872 42.5781C160.78 42.5781 161.507 42.8125 162.054 43.2812C162.601 43.75 162.875 44.3652 162.875 45.127C162.875 47.1484 160.726 48.7891 156.429 50.0488C156.82 51.9531 157.84 52.9053 159.491 52.9053C160.135 52.9053 160.751 52.7344 161.337 52.3926C161.922 52.041 162.806 51.2695 163.988 50.0781V51.7627ZM156.312 49.0527C158.812 48.3496 160.062 47.0508 160.062 45.1562C160.062 44.2188 159.72 43.75 159.037 43.75C158.392 43.75 157.777 44.2432 157.191 45.2295C156.605 46.2061 156.312 47.4805 156.312 49.0527ZM171.375 51.7627C170.145 52.9834 169.08 53.8867 168.182 54.4727C167.284 55.0488 166.429 55.3369 165.619 55.3369C164.779 55.3369 164.095 54.9854 163.568 54.2822C163.05 53.5693 162.791 52.6367 162.791 51.4844C162.791 50.4688 163.036 49.126 163.524 47.4561L164.168 45.2441L163.04 45.3027L163.509 43.0029L164.901 42.9443L166.278 38.374L170.204 37.5684L168.709 42.666L170.746 42.5488L170.262 44.8047L167.992 44.9805L167.01 48.2617C166.678 49.4043 166.512 50.3125 166.512 50.9863C166.512 51.4453 166.624 51.8213 166.849 52.1143C167.083 52.3975 167.381 52.5391 167.743 52.5391C168.241 52.5391 168.734 52.3828 169.222 52.0703C169.71 51.748 170.428 51.084 171.375 50.0781V51.7627ZM192.42 51.7627C191.16 52.9932 189.896 53.8965 188.626 54.4727C187.356 55.0488 185.921 55.3369 184.319 55.3369C182.2 55.3369 180.501 54.8242 179.222 53.7988C177.952 52.7734 177.317 51.4258 177.317 49.7559C177.317 48.3008 177.84 47.0264 178.885 45.9326C179.93 44.8291 181.531 44.0625 183.689 43.6328C181.609 42.8418 180.569 41.5088 180.569 39.6338C180.569 38.1396 181.287 36.8506 182.723 35.7666C184.158 34.6729 185.887 34.126 187.908 34.126C189.363 34.126 190.418 34.4141 191.072 34.9902C191.727 35.5566 192.054 36.0742 192.054 36.543C192.054 36.8359 191.81 37.29 191.321 37.9053C190.833 38.5205 190.477 38.8281 190.252 38.8281C189.988 38.8281 189.798 38.457 189.681 37.7148C189.407 36.0547 188.738 35.2246 187.674 35.2246C186.844 35.2246 186.092 35.6885 185.418 36.6162C184.744 37.5439 184.407 38.5938 184.407 39.7656C184.407 41.6406 185.325 42.5781 187.161 42.5781C187.464 42.5781 187.669 42.5977 187.776 42.6367C187.884 42.666 187.938 42.749 187.938 42.8857C187.938 43.2568 187.864 43.667 187.718 44.1162C187.571 44.5557 187.386 44.7754 187.161 44.7754C187.093 44.7754 186.849 44.751 186.429 44.7021C186.009 44.6436 185.643 44.6143 185.33 44.6143C184.295 44.6143 183.406 45.0391 182.664 45.8887C181.922 46.7383 181.551 47.7637 181.551 48.9648C181.551 50.2637 181.985 51.3428 182.854 52.2021C183.724 53.0518 184.822 53.4766 186.15 53.4766C187.244 53.4766 188.338 53.1836 189.432 52.5977C190.525 52.0117 191.521 51.1719 192.42 50.0781V51.7627ZM207.224 51.7627C204.793 54.165 202.669 55.3662 200.852 55.3662C199.133 55.3662 198.005 54.375 197.468 52.3926C196.492 54.375 195.173 55.3662 193.513 55.3662C192.839 55.3662 192.224 55.1807 191.668 54.8096C191.111 54.4385 190.833 54.043 190.833 53.623C190.833 53.4277 191.116 53.0908 191.682 52.6123C192.249 52.124 192.586 51.8799 192.693 51.8799C192.849 51.8799 193.001 52.0898 193.147 52.5098C193.469 53.3887 193.928 53.8281 194.524 53.8281C195.169 53.8281 195.74 53.3398 196.238 52.3633C196.746 51.377 197.136 50.1562 197.41 48.7012C197.693 47.2461 197.835 46.3477 197.835 46.0059C197.835 44.9609 197.454 44.4385 196.692 44.4385C195.735 44.4385 194.465 45.7812 192.883 48.4668C192.044 49.8926 191.194 50.9912 190.335 51.7627H189.998V50.4443C190.515 49.9365 191.087 49.1846 191.712 48.1885C192.922 46.2354 194.016 44.8145 194.993 43.9258C195.979 43.0273 196.965 42.5781 197.952 42.5781C199.583 42.5781 200.559 43.5303 200.881 45.4346C201.37 44.4482 201.878 43.7256 202.405 43.2666C202.942 42.8076 203.587 42.5781 204.338 42.5781C205.081 42.5781 205.642 42.8076 206.023 43.2666C206.404 43.7158 206.594 44.1455 206.594 44.5557C206.594 44.6924 206.321 45.0244 205.774 45.5518C205.227 46.0693 204.846 46.3281 204.631 46.3281C204.495 46.3281 204.421 46.1523 204.412 45.8008C204.402 45.4395 204.299 45.0928 204.104 44.7607C203.919 44.4287 203.674 44.2627 203.372 44.2627C202.61 44.2627 201.946 45.2734 201.379 47.2949C200.813 49.3066 200.53 50.835 200.53 51.8799C200.53 52.4365 200.671 52.8857 200.955 53.2275C201.238 53.5693 201.604 53.7402 202.053 53.7402C203.352 53.7402 205.076 52.5195 207.224 50.0781V51.7627ZM212.126 45.0684C212.829 44.2188 213.493 43.5938 214.118 43.1934C214.743 42.7832 215.437 42.5781 216.198 42.5781C217.185 42.5781 217.986 42.959 218.601 43.7207C219.226 44.4727 219.538 45.4639 219.538 46.6943C219.538 48.8525 218.791 50.835 217.297 52.6416C215.813 54.4385 214.196 55.3369 212.448 55.3369C211.96 55.3369 211.574 55.2832 211.291 55.1758C211.008 55.0684 210.637 54.8193 210.178 54.4287C209.475 57.5244 209.021 60.0049 208.816 61.8701L205.095 62.5293C205.788 57.959 206.672 53.3301 207.746 48.6426C206.457 50.332 205.588 51.3721 205.139 51.7627H204.802V50.4443C206.657 48.4424 208.186 46.0107 209.387 43.1494L212.697 42.5488L212.126 45.0684ZM210.442 52.9053C210.949 53.7451 211.511 54.165 212.126 54.165C213.112 54.165 213.982 53.418 214.734 51.9238C215.495 50.4199 215.876 48.9551 215.876 47.5293C215.876 46.7773 215.72 46.1719 215.407 45.7129C215.105 45.2441 214.709 45.0098 214.221 45.0098C213.84 45.0098 213.44 45.1807 213.02 45.5225C212.6 45.8643 212.282 46.2646 212.068 46.7236C211.853 47.1729 211.609 47.9639 211.335 49.0967L210.442 52.9053ZM230.886 51.7627C228.434 54.165 226.545 55.3662 225.217 55.3662C224.621 55.3662 224.118 55.1172 223.708 54.6191C223.298 54.1113 223.093 53.4863 223.093 52.7441C223.093 51.3672 223.83 49.5215 225.304 47.207C224.582 47.5781 223.791 47.8369 222.931 47.9834C222.297 49.1553 221.301 50.415 219.943 51.7627H219.606V50.4443C220.368 49.6533 221.056 48.8037 221.672 47.8955C220.832 47.5244 220.412 46.9727 220.412 46.2402C220.412 45.4883 220.666 44.6875 221.174 43.8379C221.691 42.9785 222.399 42.5488 223.298 42.5488C224.059 42.5488 224.44 42.9395 224.44 43.7207C224.44 44.3359 224.221 45.2148 223.781 46.3574C225.402 46.1816 226.818 44.9414 228.029 42.6367L229.362 42.5781L228 46.3281C227.433 47.9102 227.067 48.9893 226.901 49.5654C226.735 50.1318 226.652 50.6348 226.652 51.0742C226.652 51.4844 226.745 51.8115 226.93 52.0557C227.126 52.2998 227.385 52.4219 227.707 52.4219C228.058 52.4219 228.395 52.3047 228.718 52.0703C229.04 51.8262 229.762 51.1621 230.886 50.0781V51.7627ZM239.743 51.7627C238.502 52.9834 237.389 53.8867 236.403 54.4727C235.416 55.0488 234.328 55.3369 233.136 55.3369C231.808 55.3369 230.734 54.9121 229.913 54.0625C229.103 53.2129 228.698 52.0947 228.698 50.708C228.698 48.6377 229.415 46.7676 230.851 45.0977C232.287 43.418 233.878 42.5781 235.626 42.5781C236.535 42.5781 237.262 42.8125 237.809 43.2812C238.356 43.75 238.629 44.3652 238.629 45.127C238.629 47.1484 236.481 48.7891 232.184 50.0488C232.575 51.9531 233.595 52.9053 235.246 52.9053C235.89 52.9053 236.505 52.7344 237.091 52.3926C237.677 52.041 238.561 51.2695 239.743 50.0781V51.7627ZM232.067 49.0527C234.567 48.3496 235.817 47.0508 235.817 45.1562C235.817 44.2188 235.475 43.75 234.791 43.75C234.147 43.75 233.532 44.2432 232.946 45.2295C232.36 46.2061 232.067 47.4805 232.067 49.0527ZM242.154 43.1787C242.828 43.0029 243.507 42.8613 244.19 42.7539C244.874 42.6367 245.284 42.5781 245.421 42.5781C245.519 42.5781 245.567 42.6172 245.567 42.6953C245.567 42.8418 245.528 42.9932 245.45 43.1494C245.294 43.5986 245.216 44.0283 245.216 44.4385C245.216 44.9463 245.509 45.6396 246.095 46.5186C246.681 47.3975 246.974 48.2129 246.974 48.9648C246.974 50.459 246.256 51.8994 244.82 53.2861C243.395 54.6729 241.915 55.3662 240.382 55.3662C239.718 55.3662 239.112 55.1904 238.565 54.8389C238.019 54.4873 237.745 54.1113 237.745 53.7109C237.745 53.4766 238.014 53.0322 238.551 52.3779C239.098 51.7236 239.488 51.3965 239.723 51.3965C240.035 51.3965 240.313 51.7969 240.558 52.5977C240.802 53.3984 241.222 53.7988 241.817 53.7988C242.413 53.7988 242.97 53.5254 243.487 52.9785C244.015 52.4219 244.278 51.8262 244.278 51.1914C244.278 50.5762 243.946 49.7559 243.282 48.7305C242.618 47.7051 242.179 46.8457 241.964 46.1523C240.831 47.9785 239.396 49.8486 237.657 51.7627H237.32V50.4443C239.713 47.8955 241.324 45.4736 242.154 43.1787ZM252.242 43.1787C252.916 43.0029 253.594 42.8613 254.278 42.7539C254.962 42.6367 255.372 42.5781 255.508 42.5781C255.606 42.5781 255.655 42.6172 255.655 42.6953C255.655 42.8418 255.616 42.9932 255.538 43.1494C255.381 43.5986 255.303 44.0283 255.303 44.4385C255.303 44.9463 255.596 45.6396 256.182 46.5186C256.768 47.3975 257.061 48.2129 257.061 48.9648C257.061 50.459 256.343 51.8994 254.908 53.2861C253.482 54.6729 252.003 55.3662 250.469 55.3662C249.805 55.3662 249.2 55.1904 248.653 54.8389C248.106 54.4873 247.833 54.1113 247.833 53.7109C247.833 53.4766 248.101 53.0322 248.638 52.3779C249.185 51.7236 249.576 51.3965 249.81 51.3965C250.123 51.3965 250.401 51.7969 250.645 52.5977C250.889 53.3984 251.309 53.7988 251.905 53.7988C252.501 53.7988 253.057 53.5254 253.575 52.9785C254.102 52.4219 254.366 51.8262 254.366 51.1914C254.366 50.5762 254.034 49.7559 253.37 48.7305C252.706 47.7051 252.266 46.8457 252.051 46.1523C250.919 47.9785 249.483 49.8486 247.745 51.7627H247.408V50.4443C249.8 47.8955 251.412 45.4736 252.242 43.1787Z" fill="#FF7733"/>
</svg>