<svg width="279" height="88" viewBox="0 0 279 88" fill="none" xmlns="http://www.w3.org/2000/svg">
<rect width="279" height="88" fill="white"/>
<rect width="279" height="88" fill="#FF7733"/>
<rect x="3" y="3" width="83" height="82" fill="white"/>
<path d="M65.3288 28.0598C65.3705 28.2473 65.3913 28.414 65.3913 28.5598C65.3913 29.164 65.0163 29.5702 64.2663 29.7785C64.2246 29.7994 63.5059 29.914 62.11 30.1223C58.4225 30.6431 54.6309 31.0702 50.735 31.4035C49.0892 34.9244 47.0684 40.6327 44.6725 48.5285C42.4642 55.7369 40.8392 61.7577 39.7975 66.591C39.4434 68.1535 38.9225 68.9348 38.235 68.9348C37.7975 68.9348 36.9121 68.7056 35.5788 68.2473C35.0996 68.1015 34.8392 67.8202 34.7975 67.4035C34.8392 67.8202 34.86 67.1848 34.86 65.4973C34.86 62.4348 35.3496 59.6431 36.3288 57.1223C36.7038 56.1848 37.1205 55.716 37.5788 55.716C37.7038 55.716 37.9434 55.7681 38.2975 55.8723C38.6725 55.9556 38.9746 56.0077 39.2038 56.0285C39.7663 53.9035 41.0996 49.7056 43.2038 43.4348C45.5788 36.3515 46.8705 32.466 47.0788 31.7785C43.8705 32.0285 40.6621 32.5285 37.4538 33.2785C33.8913 34.1535 31.558 35.0806 30.4538 36.0598C29.2038 37.1848 28.5788 38.2994 28.5788 39.4035C28.5788 40.591 29.2663 42.4452 30.6413 44.966C30.7871 45.2369 30.86 45.4869 30.86 45.716C30.86 46.2369 30.6205 46.4973 30.1413 46.4973C29.808 46.4973 29.5059 46.2994 29.235 45.9035C27.5892 43.5494 26.5163 41.716 26.0163 40.4035C25.6621 39.4869 25.4121 38.164 25.2663 36.4348C25.0371 33.8931 27.1309 32.0181 31.5475 30.8098C37.2975 29.2473 43.0996 28.2056 48.9538 27.6848C49.6205 26.3306 50.11 25.6535 50.4225 25.6535C50.9017 25.6535 51.7142 26.1744 52.86 27.216C53.4017 27.216 55.0788 27.0077 57.8913 26.591C58.3913 26.5077 58.9017 26.1431 59.4225 25.4973C59.8809 24.8931 60.9746 24.5494 62.7038 24.466C63.6413 24.4244 64.2871 24.7785 64.6413 25.5285C64.7038 25.6327 64.933 26.4765 65.3288 28.0598Z" fill="#235659"/>
<path d="M99.8379 35.6709H113.574V40.0889H112.33C112.144 39.361 111.958 38.7855 111.771 38.3623C111.594 37.9391 111.403 37.6175 111.2 37.3975C110.997 37.1774 110.777 37.0208 110.54 36.9277C110.312 36.8346 109.965 36.7881 109.499 36.7881H107.887V49.7881C107.887 50.2874 107.912 50.6852 107.963 50.9814C108.022 51.2777 108.107 51.5146 108.217 51.6924C108.335 51.8617 108.492 51.9971 108.687 52.0986C108.881 52.1917 109.186 52.2848 109.601 52.3779V53H103.799V52.3779C104.053 52.3187 104.277 52.2552 104.472 52.1875C104.666 52.1198 104.823 52.0394 104.941 51.9463C105.068 51.8447 105.17 51.7178 105.246 51.5654C105.331 51.4131 105.394 51.2057 105.437 50.9434C105.487 50.681 105.513 50.2959 105.513 49.7881V36.7881H103.913C103.515 36.7881 103.185 36.8262 102.923 36.9023C102.669 36.9785 102.432 37.1393 102.212 37.3848C101.992 37.6217 101.789 37.9645 101.603 38.4131C101.425 38.8532 101.256 39.4118 101.095 40.0889H99.8379V35.6709ZM119.274 35.8867V38.3496H116.938V35.8867H119.274ZM115.644 52.3779C115.974 52.2764 116.206 52.1875 116.342 52.1113C116.486 52.0352 116.604 51.9294 116.697 51.7939C116.799 51.6585 116.875 51.4512 116.926 51.1719C116.985 50.8926 117.015 50.4567 117.015 49.8643V44.3291C117.015 43.7874 117.006 43.3516 116.989 43.0215C116.972 42.6914 116.913 42.429 116.812 42.2344C116.71 42.0312 116.553 41.8831 116.342 41.79C116.139 41.6885 115.847 41.6038 115.466 41.5361V40.8633L118.424 40.749H119.198V49.8262C119.198 50.554 119.232 51.0618 119.3 51.3496C119.368 51.6289 119.494 51.8447 119.681 51.9971C119.875 52.141 120.188 52.2679 120.62 52.3779V53H115.644V52.3779ZM132.338 41.1553V43.8086H130.726C130.582 43.2585 130.404 42.8268 130.192 42.5137C129.981 42.1921 129.735 41.9678 129.456 41.8408C129.177 41.7139 128.83 41.6504 128.415 41.6504C127.823 41.6504 127.298 41.8408 126.841 42.2217C126.384 42.6025 126.02 43.1823 125.749 43.9609C125.487 44.7396 125.355 45.6917 125.355 46.8174C125.355 47.5368 125.406 48.1969 125.508 48.7979C125.609 49.3903 125.783 49.8981 126.028 50.3213C126.274 50.7445 126.6 51.0745 127.006 51.3115C127.412 51.5485 127.916 51.667 128.517 51.667C129.101 51.667 129.642 51.5527 130.142 51.3242C130.649 51.0957 131.174 50.6937 131.716 50.1182L132.439 50.9561C132.008 51.43 131.627 51.7982 131.297 52.0605C130.967 52.3145 130.611 52.5303 130.23 52.708C129.858 52.8773 129.486 53 129.113 53.0762C128.749 53.1608 128.352 53.2031 127.92 53.2031C126.32 53.2031 125.097 52.6742 124.251 51.6162C123.405 50.5498 122.981 49.0137 122.981 47.0078C122.981 45.7552 123.218 44.6465 123.692 43.6816C124.166 42.7083 124.831 41.9593 125.686 41.4346C126.54 40.9098 127.526 40.6475 128.644 40.6475C129.338 40.6475 129.977 40.6898 130.561 40.7744C131.153 40.8506 131.745 40.9775 132.338 41.1553ZM137.746 45.9287H138.152C138.432 45.9287 138.66 45.8991 138.838 45.8398C139.049 45.7637 139.282 45.6367 139.536 45.459C139.79 45.2728 140.15 44.9639 140.615 44.5322C141.005 44.1683 141.297 43.8594 141.491 43.6055C141.694 43.3516 141.834 43.1188 141.91 42.9072C141.978 42.7295 142.012 42.5518 142.012 42.374C142.012 42.1201 141.931 41.9212 141.771 41.7773C141.618 41.6335 141.364 41.5361 141.009 41.4854V40.8633H146.48V41.4854C146.091 41.5615 145.676 41.735 145.236 42.0059C144.796 42.2767 144.343 42.6322 143.878 43.0723L140.958 45.8398L144.614 50.6133C145.037 51.1719 145.418 51.5866 145.757 51.8574C146.104 52.1198 146.48 52.2933 146.887 52.3779V53H142.012V52.3779C142.232 52.3525 142.393 52.306 142.494 52.2383C142.604 52.1621 142.659 52.0394 142.659 51.8701C142.659 51.7432 142.634 51.6204 142.583 51.502C142.541 51.375 142.448 51.2057 142.304 50.9941C142.16 50.7826 141.897 50.4144 141.517 49.8896L140.006 47.8584C139.718 47.4775 139.511 47.2279 139.384 47.1094C139.265 46.9909 139.138 46.9062 139.003 46.8555C138.868 46.8047 138.686 46.7793 138.457 46.7793H137.746V49.8262C137.746 50.554 137.78 51.0618 137.848 51.3496C137.915 51.6289 138.042 51.8447 138.229 51.9971C138.423 52.141 138.736 52.2679 139.168 52.3779V53H134.128V52.3779C134.551 52.2679 134.843 52.1536 135.004 52.0352C135.173 51.9167 135.292 51.777 135.359 51.6162C135.436 51.4469 135.486 51.2227 135.512 50.9434C135.546 50.6556 135.562 50.2832 135.562 49.8262V39.2002C135.562 38.3877 135.554 37.8206 135.537 37.499C135.529 37.1774 135.495 36.9066 135.436 36.6865C135.385 36.458 135.309 36.2803 135.207 36.1533C135.114 36.0264 134.983 35.9248 134.813 35.8486C134.653 35.7725 134.356 35.6963 133.925 35.6201V34.96L136.984 34.833H137.746V45.9287ZM157.678 50.8418C157.136 51.4089 156.637 51.8532 156.18 52.1748C155.731 52.4964 155.236 52.7503 154.694 52.9365C154.153 53.1143 153.556 53.2031 152.904 53.2031C151.161 53.2031 149.845 52.6826 148.956 51.6416C148.067 50.5921 147.623 49.0475 147.623 47.0078C147.623 45.7467 147.847 44.6338 148.296 43.6689C148.753 42.7041 149.4 41.9593 150.238 41.4346C151.076 40.9098 152.041 40.6475 153.133 40.6475C153.988 40.6475 154.715 40.7829 155.316 41.0537C155.917 41.3245 156.396 41.6969 156.751 42.1709C157.115 42.6364 157.394 43.2288 157.589 43.9482C157.792 44.6592 157.906 45.5902 157.932 46.7412H149.934V46.9697C149.934 47.9684 150.044 48.8105 150.264 49.4961C150.492 50.1732 150.86 50.7064 151.368 51.0957C151.884 51.4766 152.553 51.667 153.374 51.667C154.068 51.667 154.69 51.54 155.24 51.2861C155.799 51.0238 156.353 50.6006 156.903 50.0166L157.678 50.8418ZM155.545 45.6875C155.494 44.7734 155.38 44.0286 155.202 43.4531C155.024 42.8691 154.758 42.4248 154.402 42.1201C154.047 41.807 153.581 41.6504 153.006 41.6504C152.134 41.6504 151.436 42.0016 150.911 42.7041C150.395 43.3981 150.09 44.3926 149.997 45.6875H155.545ZM159.468 41.498C159.891 41.4303 160.234 41.3118 160.496 41.1426C160.758 40.9733 160.962 40.7575 161.105 40.4951C161.258 40.2243 161.376 39.89 161.461 39.4922C161.546 39.0859 161.634 38.4977 161.728 37.7275H163.53V40.8633H167.631V42.1455H163.53V47.7949C163.53 48.6159 163.564 49.2718 163.632 49.7627C163.7 50.2451 163.826 50.626 164.013 50.9053C164.199 51.1761 164.41 51.3708 164.647 51.4893C164.884 51.6077 165.189 51.667 165.562 51.667C165.9 51.667 166.217 51.5993 166.514 51.4639C166.81 51.32 167.102 51.1169 167.39 50.8545L167.961 51.54C167.36 52.124 166.789 52.5472 166.247 52.8096C165.714 53.0719 165.16 53.2031 164.584 53.2031C163.492 53.2031 162.68 52.8815 162.146 52.2383C161.613 51.5866 161.347 50.571 161.347 49.1914V42.1455H159.468V41.498ZM186.953 35.6709V39.5049H185.709C185.582 39.0902 185.451 38.7262 185.315 38.4131C185.18 38.0999 185.04 37.8376 184.896 37.626C184.753 37.4144 184.592 37.2451 184.414 37.1182C184.245 36.9912 184.042 36.9066 183.805 36.8643C183.568 36.8135 183.284 36.7881 182.954 36.7881H178.942V43.4404H181.659C182.032 43.4404 182.324 43.3896 182.535 43.2881C182.747 43.1781 182.92 42.9961 183.056 42.7422C183.2 42.4883 183.335 42.0905 183.462 41.5488H184.655V46.4238H183.462C183.343 45.916 183.212 45.5352 183.068 45.2812C182.924 45.0189 182.751 44.8327 182.548 44.7227C182.353 44.6126 182.057 44.5576 181.659 44.5576H178.942V51.8828H182.891C183.305 51.8828 183.64 51.849 183.894 51.7812C184.156 51.7051 184.38 51.5824 184.566 51.4131C184.753 51.2354 184.918 51.0068 185.062 50.7275C185.205 50.4482 185.324 50.1605 185.417 49.8643C185.519 49.5596 185.654 49.1195 185.823 48.5439H187.08L186.839 53H175.083V52.3779C175.608 52.2425 175.959 52.0944 176.137 51.9336C176.314 51.7643 176.429 51.5273 176.479 51.2227C176.539 50.918 176.568 50.4525 176.568 49.8262V38.8447C176.568 38.2607 176.547 37.8376 176.505 37.5752C176.463 37.3044 176.391 37.097 176.289 36.9531C176.196 36.8008 176.069 36.6823 175.908 36.5977C175.747 36.5046 175.472 36.403 175.083 36.293V35.6709H186.953ZM195.104 45.6748L196.754 43.5801C196.932 43.3516 197.076 43.1315 197.186 42.9199C197.296 42.6999 197.351 42.4756 197.351 42.2471C197.351 42.0524 197.279 41.8916 197.135 41.7646C196.991 41.6377 196.767 41.5446 196.462 41.4854V40.8633H200.613V41.4854C200.292 41.5785 199.962 41.7604 199.623 42.0312C199.293 42.3021 198.887 42.738 198.404 43.3389L195.776 46.5635L198.671 50.4609C199.086 51.0195 199.458 51.4469 199.788 51.7432C200.118 52.0394 200.448 52.251 200.778 52.3779V53H195.675V52.3779C196.377 52.2933 196.729 52.0309 196.729 51.5908C196.729 51.4131 196.699 51.2438 196.64 51.083C196.58 50.9222 196.47 50.736 196.31 50.5244L194.469 47.96L192.514 50.499C192.37 50.6852 192.256 50.8587 192.171 51.0195C192.095 51.1719 192.057 51.3454 192.057 51.54C192.057 51.7686 192.133 51.959 192.285 52.1113C192.446 52.2552 192.696 52.3441 193.034 52.3779V53H188.794V52.3779C189.073 52.2764 189.323 52.1494 189.543 51.9971C189.771 51.8447 190 51.6501 190.229 51.4131C190.465 51.1676 190.774 50.8122 191.155 50.3467L193.796 47.0713L191.092 43.3643C190.719 42.8564 190.423 42.4883 190.203 42.2598C189.983 42.0312 189.78 41.8577 189.594 41.7393C189.408 41.6208 189.221 41.5361 189.035 41.4854V40.8633H194.012V41.4854C193.343 41.5869 193.009 41.8493 193.009 42.2725C193.009 42.4671 193.051 42.6618 193.136 42.8564C193.229 43.0511 193.368 43.2669 193.555 43.5039L195.104 45.6748ZM205.742 52.6191V55.2979C205.742 55.848 205.759 56.2585 205.793 56.5293C205.835 56.8001 205.903 57.0117 205.996 57.1641C206.098 57.3249 206.237 57.4561 206.415 57.5576C206.601 57.6592 206.897 57.7523 207.304 57.8369V58.459H202.124V57.8369C202.429 57.7523 202.674 57.6634 202.86 57.5703C203.055 57.4857 203.203 57.3545 203.305 57.1768C203.406 57.0075 203.474 56.7747 203.508 56.4785C203.542 56.1823 203.559 55.7887 203.559 55.2979V44.4053C203.559 43.7959 203.55 43.3643 203.533 43.1104C203.516 42.848 203.482 42.6322 203.432 42.4629C203.381 42.2936 203.305 42.154 203.203 42.0439C203.11 41.9339 202.979 41.8408 202.81 41.7646C202.649 41.6885 202.378 41.6123 201.997 41.5361V40.8633L204.98 40.749H205.755L205.59 42.8184L205.78 42.8691C206.305 42.3359 206.72 41.9508 207.024 41.7139C207.329 41.4684 207.642 41.2653 207.964 41.1045C208.294 40.9437 208.607 40.8294 208.903 40.7617C209.208 40.694 209.53 40.6602 209.868 40.6602C211.265 40.6602 212.335 41.1849 213.08 42.2344C213.833 43.2754 214.21 44.8031 214.21 46.8174C214.21 48.2139 213.998 49.3903 213.575 50.3467C213.152 51.2946 212.534 52.0098 211.722 52.4922C210.918 52.9661 209.957 53.2031 208.84 53.2031C208.214 53.2031 207.646 53.1481 207.139 53.0381C206.631 52.9365 206.165 52.7969 205.742 52.6191ZM205.742 48.4297C205.742 49.2422 205.793 49.8685 205.895 50.3086C205.996 50.7487 206.174 51.1084 206.428 51.3877C206.69 51.6585 206.995 51.8617 207.342 51.9971C207.697 52.1325 208.163 52.2002 208.738 52.2002C209.762 52.2002 210.533 51.777 211.049 50.9307C211.565 50.0758 211.823 48.819 211.823 47.1602C211.823 43.8424 210.854 42.1836 208.916 42.1836C208.442 42.1836 208.032 42.2598 207.685 42.4121C207.346 42.556 207.007 42.793 206.669 43.123C206.33 43.4531 206.089 43.7747 205.945 44.0879C205.81 44.3926 205.742 44.7227 205.742 45.0781V48.4297ZM220.202 42.9707L220.38 43.0088C220.845 42.4417 221.277 41.9974 221.675 41.6758C222.073 41.3457 222.5 41.0918 222.957 40.9141C223.423 40.7363 223.947 40.6475 224.531 40.6475C225.022 40.6475 225.466 40.6729 225.864 40.7236V43.6436H224.43C224.227 43.1865 224.011 42.8564 223.782 42.6533C223.554 42.4417 223.241 42.3359 222.843 42.3359C222.538 42.3359 222.233 42.4248 221.929 42.6025C221.632 42.7803 221.345 43.0384 221.065 43.377C220.786 43.7155 220.591 44.0329 220.481 44.3291C220.38 44.6253 220.329 44.9766 220.329 45.3828V49.8262C220.329 50.5964 220.376 51.1296 220.469 51.4258C220.562 51.7135 220.714 51.9251 220.926 52.0605C221.146 52.196 221.472 52.3018 221.903 52.3779V53H216.787V52.3779C217.109 52.2764 217.337 52.1875 217.473 52.1113C217.617 52.0352 217.739 51.9294 217.841 51.7939C217.942 51.6585 218.019 51.4512 218.069 51.1719C218.12 50.8926 218.146 50.4567 218.146 49.8643V44.3291C218.146 43.7874 218.137 43.3516 218.12 43.0215C218.103 42.6914 218.044 42.429 217.942 42.2344C217.841 42.0312 217.684 41.8831 217.473 41.79C217.27 41.6885 216.978 41.6038 216.597 41.5361V40.876L219.567 40.749H220.342L220.202 42.9707ZM237.303 50.8418C236.761 51.4089 236.262 51.8532 235.805 52.1748C235.356 52.4964 234.861 52.7503 234.319 52.9365C233.778 53.1143 233.181 53.2031 232.529 53.2031C230.786 53.2031 229.47 52.6826 228.581 51.6416C227.692 50.5921 227.248 49.0475 227.248 47.0078C227.248 45.7467 227.472 44.6338 227.921 43.6689C228.378 42.7041 229.025 41.9593 229.863 41.4346C230.701 40.9098 231.666 40.6475 232.758 40.6475C233.613 40.6475 234.34 40.7829 234.941 41.0537C235.542 41.3245 236.021 41.6969 236.376 42.1709C236.74 42.6364 237.019 43.2288 237.214 43.9482C237.417 44.6592 237.531 45.5902 237.557 46.7412H229.559V46.9697C229.559 47.9684 229.669 48.8105 229.889 49.4961C230.117 50.1732 230.485 50.7064 230.993 51.0957C231.509 51.4766 232.178 51.667 232.999 51.667C233.693 51.667 234.315 51.54 234.865 51.2861C235.424 51.0238 235.978 50.6006 236.528 50.0166L237.303 50.8418ZM235.17 45.6875C235.119 44.7734 235.005 44.0286 234.827 43.4531C234.649 42.8691 234.383 42.4248 234.027 42.1201C233.672 41.807 233.206 41.6504 232.631 41.6504C231.759 41.6504 231.061 42.0016 230.536 42.7041C230.02 43.3981 229.715 44.3926 229.622 45.6875H235.17ZM248.36 43.6436H247.142C246.955 43.1357 246.735 42.738 246.481 42.4502C246.228 42.154 245.94 41.9466 245.618 41.8281C245.297 41.7096 244.903 41.6504 244.438 41.6504C243.76 41.6504 243.219 41.8112 242.812 42.1328C242.415 42.446 242.216 42.8776 242.216 43.4277C242.216 43.8171 242.296 44.1387 242.457 44.3926C242.618 44.6465 242.868 44.8835 243.206 45.1035C243.545 45.3236 244.141 45.6156 244.996 45.9795C245.859 46.3519 246.524 46.6947 246.989 47.0078C247.463 47.321 247.831 47.6849 248.094 48.0996C248.365 48.5143 248.5 49.0094 248.5 49.585C248.5 50.2536 248.386 50.8164 248.157 51.2734C247.929 51.7305 247.607 52.1029 247.192 52.3906C246.778 52.6784 246.283 52.8857 245.707 53.0127C245.14 53.1396 244.518 53.2031 243.841 53.2031C243.13 53.2031 242.44 53.1481 241.771 53.0381C241.103 52.9365 240.451 52.8011 239.816 52.6318V49.9785H241.061C241.289 50.7572 241.628 51.3242 242.076 51.6797C242.525 52.0267 243.143 52.2002 243.93 52.2002C244.234 52.2002 244.531 52.1706 244.818 52.1113C245.115 52.0436 245.377 51.9378 245.605 51.7939C245.834 51.6416 246.016 51.4385 246.151 51.1846C246.287 50.9307 246.354 50.6133 246.354 50.2324C246.354 49.8008 246.27 49.4495 246.101 49.1787C245.931 48.9079 245.669 48.6624 245.313 48.4424C244.958 48.2139 244.332 47.9092 243.435 47.5283C242.664 47.2067 242.047 46.8936 241.581 46.5889C241.116 46.2842 240.747 45.9245 240.477 45.5098C240.214 45.0951 240.083 44.6042 240.083 44.0371C240.083 43.3431 240.269 42.7422 240.642 42.2344C241.022 41.7181 241.568 41.3245 242.279 41.0537C242.99 40.7829 243.824 40.6475 244.78 40.6475C245.339 40.6475 245.876 40.6771 246.393 40.7363C246.917 40.7871 247.573 40.8929 248.36 41.0537V43.6436ZM259.532 43.6436H258.313C258.127 43.1357 257.907 42.738 257.653 42.4502C257.399 42.154 257.112 41.9466 256.79 41.8281C256.468 41.7096 256.075 41.6504 255.609 41.6504C254.932 41.6504 254.391 41.8112 253.984 42.1328C253.587 42.446 253.388 42.8776 253.388 43.4277C253.388 43.8171 253.468 44.1387 253.629 44.3926C253.79 44.6465 254.039 44.8835 254.378 45.1035C254.716 45.3236 255.313 45.6156 256.168 45.9795C257.031 46.3519 257.696 46.6947 258.161 47.0078C258.635 47.321 259.003 47.6849 259.266 48.0996C259.536 48.5143 259.672 49.0094 259.672 49.585C259.672 50.2536 259.558 50.8164 259.329 51.2734C259.101 51.7305 258.779 52.1029 258.364 52.3906C257.95 52.6784 257.454 52.8857 256.879 53.0127C256.312 53.1396 255.69 53.2031 255.013 53.2031C254.302 53.2031 253.612 53.1481 252.943 53.0381C252.275 52.9365 251.623 52.8011 250.988 52.6318V49.9785H252.232C252.461 50.7572 252.799 51.3242 253.248 51.6797C253.697 52.0267 254.314 52.2002 255.102 52.2002C255.406 52.2002 255.702 52.1706 255.99 52.1113C256.286 52.0436 256.549 51.9378 256.777 51.7939C257.006 51.6416 257.188 51.4385 257.323 51.1846C257.459 50.9307 257.526 50.6133 257.526 50.2324C257.526 49.8008 257.442 49.4495 257.272 49.1787C257.103 48.9079 256.841 48.6624 256.485 48.4424C256.13 48.2139 255.504 47.9092 254.606 47.5283C253.836 47.2067 253.218 46.8936 252.753 46.5889C252.287 46.2842 251.919 45.9245 251.648 45.5098C251.386 45.0951 251.255 44.6042 251.255 44.0371C251.255 43.3431 251.441 42.7422 251.813 42.2344C252.194 41.7181 252.74 41.3245 253.451 41.0537C254.162 40.7829 254.996 40.6475 255.952 40.6475C256.511 40.6475 257.048 40.6771 257.564 40.7363C258.089 40.7871 258.745 40.8929 259.532 41.0537V43.6436Z" fill="white"/>
</svg>
